<svg width="26" height="27" viewBox="0 0 26 27" fill="none" xmlns="http://www.w3.org/2000/svg">
<path d="M19.2019 0.943359H7.68458C3.93618 0.943359 0.886719 3.99282 0.886719 7.74122V19.2587C0.886719 23.0069 3.93618 26.0564 7.68458 26.0564H19.202C22.9503 26.0564 25.9997 23.0069 25.9997 19.2587V7.74122C25.9997 3.99282 22.9503 0.943359 19.2019 0.943359Z" fill="black"/>
<path d="M13.4433 6.68359C9.68471 6.68359 6.62695 9.74135 6.62695 13.5C6.62695 17.2586 9.68471 20.3164 13.4433 20.3164C17.202 20.3164 20.2597 17.2586 20.2597 13.5C20.2597 9.74135 17.202 6.68359 13.4433 6.68359ZM13.4433 18.8549C10.4908 18.8549 8.08841 16.4527 8.08841 13.5C8.08841 10.5474 10.4908 8.14505 13.4433 8.14505C16.3961 8.14505 18.7983 10.5474 18.7983 13.5C18.7983 16.4527 16.3961 18.8549 13.4433 18.8549Z" fill="white"/>
<path d="M20.2589 4.53125C19.0719 4.53125 18.1064 5.4969 18.1064 6.68369C18.1064 7.87068 19.0719 8.83633 20.2589 8.83633C21.4459 8.83633 22.4115 7.87068 22.4115 6.68369C22.4115 5.4967 21.4459 4.53125 20.2589 4.53125ZM20.2589 7.27434C19.9333 7.27434 19.6682 7.0093 19.6682 6.68369C19.6682 6.35788 19.9333 6.09304 20.2589 6.09304C20.5847 6.09304 20.8497 6.35788 20.8497 6.68369C20.8497 7.0093 20.5847 7.27434 20.2589 7.27434Z" fill="white"/>
</svg>
