<svg width="107" height="18" viewBox="0 0 107 18" fill="none" xmlns="http://www.w3.org/2000/svg">
<path d="M4.7537 0H10.3414C10.5249 0 10.675 0.146486 10.675 0.325525V2.76696C10.675 2.946 10.8251 3.09248 11.0086 3.09248H20.6828C20.8679 3.09248 21.0164 3.23897 21.0164 3.41801V7.16154C21.0164 7.34058 20.8679 7.48707 20.6828 7.48707H10.8418C10.6583 7.48707 10.5082 7.63193 10.5082 7.81259V10.4982C10.5082 12.4513 12.1761 12.9396 13.0101 12.9396H20.6828C20.8679 12.9396 21.0164 13.0861 21.0164 13.2651V16.6018C21.0164 16.7808 20.8679 16.9273 20.6844 16.9273H10.1746C4.70366 16.9273 3.39097 14.2694 3.41933 12.9396V7.81259C3.41933 7.63355 3.26921 7.48707 3.08574 7.48707H0.333593C0.150117 7.48707 0 7.34058 0 7.16154V3.41801C0 3.23897 0.150117 3.09248 0.333593 3.09248H3.16913C3.99645 3.06319 4.34338 2.89391 4.42011 1.87177V0.325525C4.42011 0.146486 4.57023 0 4.7537 0Z" fill="white"/>
<path d="M60.8641 16.8022L50.3743 3.6185C50.2042 3.40528 50.361 3.09277 50.6378 3.09277H58.9677C59.0711 3.09277 59.1678 3.13997 59.2312 3.2181L65.6362 11.2423L72.0412 3.2181C72.1046 3.13835 72.2013 3.09277 72.3047 3.09277H80.6345C80.9114 3.09277 81.0682 3.40365 80.8981 3.6185L70.4082 16.8022C70.3449 16.882 70.2481 16.9276 70.1447 16.9276H65.7213C65.6929 16.9276 65.6645 16.9243 65.6379 16.9178C65.6112 16.9243 65.5828 16.9276 65.5545 16.9276H61.131C61.0276 16.9276 60.9309 16.8804 60.8675 16.8022H60.8641Z" fill="white"/>
<path fill-rule="evenodd" clip-rule="evenodd" d="M82.3977 8.21991H87.9687C88.1238 8.21991 88.2572 8.11249 88.3256 7.97577C88.6408 7.34751 89.6967 6.42953 92.1553 6.42953H95.5746C98.3234 6.42953 99.3175 7.577 99.486 8.18574C99.4926 8.20852 99.4943 8.23294 99.4943 8.25735V9.19812C99.4943 9.37715 99.3442 9.52364 99.1607 9.52364H86.1506C84.5377 9.52364 81.3135 10.1747 81.3135 12.7789C81.3135 15.3831 84.149 16.6315 85.5668 16.9293C88.821 17.1881 90.6541 17.2158 93.8232 16.9293C94.9408 16.8366 97.2676 16.3076 98.7954 14.9355C99.0356 14.7206 99.4943 14.8769 99.4943 15.1943V16.6022C99.4943 16.7812 99.6444 16.9277 99.8279 16.9277H106.667C106.85 16.9277 107 16.7812 107 16.6022V9.94845C107 8.814 106.772 7.65676 106.096 6.7339C105.487 5.90055 104.578 4.99559 103.08 4.31362C100.578 3.17428 98.2433 2.84876 95.241 2.84876C94.859 2.84876 94.4637 2.8455 94.0567 2.84062C91.2729 2.81295 87.9987 2.7804 85.2332 3.98647C82.3243 5.25601 82.0857 6.66391 82.0657 7.89276C82.0624 8.07343 82.2125 8.21829 82.3977 8.21829V8.21991ZM99.1607 11.5582H89.5699C89.0695 11.5858 88.0687 11.8349 88.0687 12.6161C88.0687 13.5927 88.7359 14.2437 91.2379 14.2437C93.7398 14.2437 97.4394 14.2437 99.3892 12.5478C99.4576 12.4892 99.4943 12.4029 99.4943 12.315V11.8837C99.4943 11.7047 99.3442 11.5582 99.1607 11.5582Z" fill="white"/>
<path fill-rule="evenodd" clip-rule="evenodd" d="M36.8623 17.4155C44.6917 17.4155 51.04 14.1733 51.04 10.1726C51.04 6.17191 44.6917 2.92969 36.8623 2.92969C29.0328 2.92969 22.6846 6.17191 22.6846 10.1726C22.6846 14.1733 29.0328 17.4155 36.8623 17.4155ZM36.8623 13.3465C40.3633 13.3465 43.2005 11.9256 43.2005 10.1726C43.2005 8.41966 40.3633 6.99875 36.8623 6.99875C33.3612 6.99875 30.524 8.41966 30.524 10.1726C30.524 11.9256 33.3612 13.3465 36.8623 13.3465Z" fill="white"/>
</svg>
