<svg width="25" height="25" viewBox="0 0 25 25" fill="none" xmlns="http://www.w3.org/2000/svg">
<path d="M12.5 0C10.0277 0 7.61099 0.733112 5.55538 2.10663C3.49976 3.48015 1.89761 5.43238 0.951511 7.71645C0.0054161 10.0005 -0.242126 12.5139 0.24019 14.9386C0.722505 17.3634 1.91301 19.5907 3.66117 21.3388C5.40933 23.087 7.63661 24.2775 10.0614 24.7598C12.4861 25.2421 14.9995 24.9946 17.2835 24.0485C19.5676 23.1024 21.5199 21.5002 22.8934 19.4446C24.2669 17.389 25 14.9723 25 12.5C25 9.18479 23.683 6.00537 21.3388 3.66116C18.9946 1.31696 15.8152 0 12.5 0ZM19.7045 17.392C19.3409 17.4432 17.5625 17.392 17.4702 17.392C17.0104 17.3981 16.5669 17.2225 16.2358 16.9034C15.8608 16.5412 15.5256 16.1435 15.1591 15.767C15.0511 15.6515 14.9338 15.5451 14.8082 15.4489C14.5156 15.2244 14.2259 15.2741 14.0881 15.6207C13.9805 15.9938 13.9054 16.3754 13.8636 16.7614C13.8395 17.1108 13.6179 17.3295 13.2259 17.3537C12.983 17.3665 12.7401 17.3722 12.5 17.3651C11.625 17.3603 10.7638 17.1475 9.98722 16.7443C9.14676 16.2765 8.41443 15.6366 7.83807 14.8665C6.89063 13.6562 6.13353 12.3267 5.45739 10.956C5.42188 10.8864 4.7287 9.41193 4.71165 9.34233C4.64915 9.11079 4.71165 8.88778 4.90341 8.80966C5.02557 8.76278 7.30966 8.80966 7.34802 8.80966C7.51795 8.8085 7.68384 8.86141 7.82172 8.96074C7.95961 9.06007 8.06234 9.20067 8.11506 9.36221C8.53766 10.4432 9.11572 11.4567 9.83097 12.3707C9.93116 12.4925 10.0484 12.5992 10.179 12.6875C10.3651 12.8153 10.5412 12.7713 10.6179 12.5554C10.7089 12.2578 10.7624 11.95 10.777 11.6392C10.7898 11.0227 10.777 10.6179 10.7429 10.0014C10.7202 9.60653 10.581 9.26136 9.99858 9.14915C9.81961 9.11648 9.80398 8.96875 9.91904 8.82102C10.1591 8.51562 10.4872 8.46591 10.8551 8.44744C11.4034 8.41619 11.9517 8.4375 12.5 8.44744H12.6193C12.858 8.44657 13.096 8.47085 13.3295 8.51988C13.4677 8.54809 13.5931 8.62014 13.687 8.72533C13.7809 8.83052 13.8384 8.96322 13.8509 9.10369C13.8791 9.25922 13.891 9.41728 13.8864 9.57528C13.8722 10.2472 13.8395 10.9205 13.8324 11.5923C13.8258 11.8589 13.8501 12.1254 13.9048 12.3864C13.983 12.7443 14.2287 12.8338 14.473 12.5753C14.7896 12.2418 15.0798 11.8842 15.3409 11.5057C15.8037 10.8157 16.185 10.0745 16.4773 9.29687C16.6364 8.89773 16.7614 8.80966 17.1875 8.80966H19.6108C19.7549 8.80713 19.8985 8.82628 20.0369 8.86648C20.0859 8.87935 20.1317 8.9022 20.1715 8.93359C20.2112 8.96498 20.244 9.00424 20.2679 9.04891C20.2918 9.09358 20.3062 9.1427 20.3102 9.19319C20.3142 9.24368 20.3077 9.29445 20.2912 9.34233C20.1719 9.87358 19.8849 10.3267 19.581 10.7628C19.0881 11.4602 18.5682 12.1406 18.0639 12.8295C18.0033 12.9186 17.9478 13.0111 17.8977 13.1065C17.7074 13.4503 17.7216 13.642 17.9972 13.9261C18.4375 14.3793 18.9077 14.8026 19.3324 15.2685C19.6439 15.6074 19.9253 15.9729 20.1733 16.3608C20.4759 16.8494 20.2841 17.3097 19.7045 17.392Z" fill="black"/>
</svg>
