<svg width="26" height="27" viewBox="0 0 26 27" fill="none" xmlns="http://www.w3.org/2000/svg">
<path d="M22.1327 4.55269C14.0872 -3.22487 0.772049 2.41603 0.766817 13.3881C0.766817 15.5813 1.34128 17.72 2.43578 19.6087L0.661133 26.0564L7.28992 24.3278C15.5615 28.7957 25.7699 22.8629 25.7741 13.3944C25.7741 10.0712 24.4766 6.94362 22.117 4.5935L22.1327 4.55269Z" fill="black"/>
<path d="M19.3455 16.0602L19.3354 16.1418C16.8668 14.9488 16.6086 14.7899 16.2898 15.2536C16.0686 15.5747 15.4243 16.3029 15.2301 16.5184C15.0336 16.7307 14.8383 16.747 14.5049 16.6001C14.1681 16.4368 13.087 16.0939 11.8073 14.9836C10.8104 14.1182 10.1414 13.0569 9.94378 12.7304C9.61486 12.1796 10.303 12.1012 10.9294 10.9517C11.0417 10.7231 10.9844 10.5435 10.9013 10.3813C10.8172 10.2181 10.147 8.61793 9.86632 7.98006C9.5969 7.34436 9.31962 7.42491 9.11194 7.42491C8.46533 7.37049 7.99272 7.37919 7.57624 7.79936C5.76438 9.7304 6.22128 11.7224 7.77157 13.8407C10.8183 17.7071 12.4415 18.419 15.4097 19.4074C16.2112 19.6545 16.942 19.6196 17.5201 19.5391C18.1645 19.44 19.5037 18.7543 19.7833 17.9868C20.0695 17.2194 20.0695 16.5827 19.9853 16.4357C19.9023 16.2888 19.6822 16.2071 19.3455 16.0602Z" fill="white"/>
</svg>
