<svg width="138" height="31" viewBox="0 0 138 31" fill="none" xmlns="http://www.w3.org/2000/svg">
<path d="M96.2491 23.824L91.3506 10.1542H96.632L99.2579 19.7107L107.111 0.138672H112.165L101.822 23.824H96.2516H96.2491Z" fill="white"/>
<path d="M17.0521 17.8171V13.5501C17.0521 11.2734 16.3565 9.54766 14.9679 8.36805C13.5768 7.18844 11.6089 6.59863 9.06426 6.59863C7.71769 6.59863 6.44538 6.77824 5.24733 7.13504C4.04928 7.49426 2.8933 8.03067 1.78189 8.74669L3.28935 11.9069C4.2077 11.2952 5.08643 10.8365 5.92061 10.5331C6.7548 10.2273 7.63106 10.0744 8.55187 10.0744C10.797 10.0744 11.9208 11.0331 11.9208 12.9506V13.7103C11.4282 13.4773 10.8514 13.3049 10.1881 13.1884C9.52467 13.0744 8.84149 13.0161 8.13355 13.0161C7.06421 13.0161 6.09141 13.152 5.21515 13.4263C4.33889 13.7006 3.57897 14.0792 2.93786 14.5646C2.29675 15.0501 1.79921 15.6278 1.44524 16.3025C1.09127 16.9773 0.915527 17.7248 0.915527 18.5452C0.915527 19.3049 1.06405 20.004 1.36603 20.6472C1.66555 21.2904 2.0715 21.8486 2.58389 22.3219C3.09628 22.7952 3.71263 23.1642 4.428 23.4287C5.14337 23.6909 5.92061 23.8244 6.7548 23.8244C7.90829 23.8244 9.00486 23.5719 10.042 23.0646C11.0792 22.5598 11.9728 21.8316 12.7203 20.885L12.8168 21.6447C12.9456 22.3195 13.255 22.8413 13.7476 23.2078C14.2401 23.5768 14.9654 23.7612 15.9283 23.7612C16.2278 23.7612 16.5595 23.7467 16.9234 23.7127C17.2873 23.6811 17.6932 23.6132 18.1412 23.5064V19.2418C17.7353 19.2006 17.4506 19.0792 17.2897 18.8778C17.1288 18.6787 17.0496 18.3244 17.0496 17.8195L17.0521 17.8171ZM11.9183 17.9433C11.9183 18.3656 11.6732 18.7661 11.1807 19.1447C10.8391 19.4603 10.4059 19.7127 9.88112 19.9045C9.35635 20.0938 8.81673 20.1884 8.25979 20.1884C7.53204 20.1884 6.93302 19.9943 6.46271 19.6035C5.9924 19.2151 5.75724 18.7127 5.75724 18.1035C5.75724 17.4287 6.06171 16.8826 6.67064 16.4603C7.27956 16.0379 8.05434 15.8292 8.99743 15.8292C9.44794 15.8292 9.9331 15.8778 10.4579 15.9724C10.9826 16.0671 11.4678 16.1981 11.9183 16.368V17.9481V17.9433Z" fill="white"/>
<path d="M36.0086 9.0844C35.3125 8.31338 34.4877 7.70774 33.5365 7.26264C32.5829 6.81997 31.5401 6.59863 30.4056 6.59863C29.1225 6.59863 28.0128 6.86375 27.0839 7.38912C26.1526 7.91692 25.3773 8.65633 24.7555 9.60491V6.91239H20.2944V30.284H25.4318V20.8468C25.9445 21.7978 26.6727 22.5348 27.614 23.0626C28.5553 23.5904 29.6674 23.8531 30.953 23.8531C32.0008 23.8531 32.9742 23.6318 33.8734 23.1891C34.7726 22.7464 35.5429 22.1383 36.1845 21.3673C36.826 20.5963 37.3288 19.6842 37.6929 18.6286C38.0571 17.573 38.2379 16.4225 38.2379 15.1772C38.2379 13.9319 38.0397 12.8495 37.6434 11.8037C37.2471 10.7578 36.7021 9.85057 36.0061 9.07954L36.0086 9.0844ZM32.734 16.8433C32.5532 17.3808 32.2906 17.8503 31.9463 18.2516C31.6045 18.6529 31.2032 18.974 30.7425 19.2172C30.2817 19.4604 29.7739 19.582 29.2166 19.582C28.424 19.582 27.6809 19.2975 26.9848 18.7259C26.2888 18.1567 25.7711 17.449 25.4268 16.605V13.1852C25.7686 12.4871 26.2665 11.935 26.9204 11.5215C27.5719 11.1105 28.2531 10.9037 28.959 10.9037C29.5362 10.9037 30.0761 11.0083 30.579 11.2199C31.0818 11.4315 31.5103 11.7258 31.8621 12.1077C32.2163 12.4871 32.4937 12.9371 32.6968 13.4527C32.8999 13.9708 33.0015 14.5351 33.0015 15.148C33.0015 15.761 32.9098 16.3034 32.729 16.8433H32.734Z" fill="white"/>
<path d="M56.1053 9.0844C55.4092 8.31338 54.5844 7.70774 53.6332 7.26264C52.6796 6.81997 51.6367 6.59863 50.5023 6.59863C49.2192 6.59863 48.1095 6.86375 47.1806 7.38912C46.2492 7.91692 45.4739 8.65633 44.8522 9.60491V6.91239H40.3911V30.284H45.5284V20.8468C46.0412 21.7978 46.7694 22.5348 47.7107 23.0626C48.6519 23.5904 49.7641 23.8531 51.0497 23.8531C52.0975 23.8531 53.0709 23.6318 53.9701 23.1891C54.8692 22.7464 55.6396 22.1383 56.2811 21.3673C56.9227 20.5963 57.4255 19.6842 57.7896 18.6286C58.1537 17.573 58.3346 16.4225 58.3346 15.1772C58.3346 13.9319 58.1364 12.8495 57.7401 11.8037C57.3438 10.7578 56.7988 9.85057 56.1028 9.07954L56.1053 9.0844ZM52.8307 16.8433C52.6498 17.3808 52.3873 17.8503 52.043 18.2516C51.7011 18.6529 51.2999 18.974 50.8391 19.2172C50.3784 19.4604 49.8706 19.582 49.3133 19.582C48.5207 19.582 47.7776 19.2975 47.0815 18.7259C46.3855 18.1567 45.8678 17.449 45.5235 16.605V13.1852C45.8653 12.4871 46.3632 11.935 47.0171 11.5215C47.6686 11.1105 48.3497 10.9037 49.0557 10.9037C49.6328 10.9037 50.1728 11.0083 50.6757 11.2199C51.1785 11.4315 51.607 11.7258 51.9587 12.1077C52.313 12.4871 52.5904 12.9371 52.7935 13.4527C52.9966 13.9708 53.0982 14.5351 53.0982 15.148C53.0982 15.761 53.0065 16.3034 52.8257 16.8433H52.8307Z" fill="white"/>
<path d="M71.1305 6.59863C70.0953 6.62097 69.12 6.95362 68.2045 7.60154C67.2891 8.24698 66.5407 9.14314 65.957 10.2851V6.85929H61.2051V23.8244H66.3786V13.6438C66.8301 12.8668 67.5635 12.2859 68.5762 11.8987C69.589 11.5114 70.7214 11.3054 71.9712 11.2855V6.6309C71.8639 6.60856 71.7566 6.59863 71.6469 6.59863H71.1305Z" fill="white"/>
<path d="M88.27 9.20616C87.5039 8.41468 86.5678 7.78343 85.4593 7.31C84.3532 6.83656 83.0845 6.59863 81.6607 6.59863C80.2368 6.59863 78.9633 6.83656 77.8449 7.31C76.7265 7.78343 75.7855 8.41711 75.0193 9.20616C74.2532 9.99522 73.6719 10.913 73.2802 11.9569C72.886 13.0009 72.689 14.091 72.689 15.2273C72.689 16.3635 72.886 17.4561 73.2802 18.4976C73.6743 19.5416 74.2532 20.4569 75.0193 21.2484C75.7855 22.0399 76.7265 22.6663 77.8449 23.13C78.9633 23.5937 80.2344 23.8244 81.6607 23.8244C83.087 23.8244 84.3581 23.5913 85.4765 23.13C86.5924 22.6663 87.5359 22.0399 88.302 21.2484C89.0682 20.4593 89.6471 19.5416 90.0412 18.4976C90.4354 17.4536 90.6324 16.3635 90.6324 15.2273C90.6324 14.091 90.4304 12.9985 90.0264 11.9569C89.6224 10.913 89.0361 9.99765 88.27 9.20616ZM85.0774 16.9826C84.8853 17.5192 84.6242 17.978 84.2941 18.3568C83.964 18.7355 83.5772 19.0317 83.1289 19.243C82.683 19.4542 82.1928 19.5586 81.6607 19.5586C80.5743 19.5586 79.6801 19.1628 78.978 18.3738C78.276 17.5823 77.9237 16.5359 77.9237 15.2297C77.9237 14.5985 78.0198 14.0133 78.2119 13.4744C78.4041 12.9378 78.6627 12.4789 78.9953 12.1002C79.3254 11.7214 79.7195 11.4252 80.1753 11.214C80.6334 11.0028 81.1286 10.8984 81.6607 10.8984C82.7249 10.8984 83.6092 11.2941 84.3113 12.0832C85.0134 12.8747 85.3657 13.9235 85.3657 15.2273C85.3657 15.8585 85.2696 16.4436 85.0774 16.9826Z" fill="white"/>
<path d="M125.431 17.8171V13.5501C125.431 11.2734 124.735 9.54766 123.346 8.36805C121.955 7.18844 119.987 6.59863 117.443 6.59863C116.096 6.59863 114.824 6.77824 113.626 7.13504C112.428 7.49426 111.272 8.03067 110.16 8.74669L111.668 11.9069C112.586 11.2952 113.465 10.8365 114.299 10.5331C115.133 10.2273 116.009 10.0744 116.93 10.0744C119.175 10.0744 120.299 11.0331 120.299 12.9506V13.7103C119.807 13.4773 119.23 13.3049 118.566 13.1884C117.903 13.0744 117.22 13.0161 116.512 13.0161C115.443 13.0161 114.47 13.152 113.594 13.4263C112.717 13.7006 111.957 14.0792 111.316 14.5646C110.675 15.0501 110.178 15.6278 109.824 16.3025C109.47 16.9773 109.294 17.7248 109.294 18.5452C109.294 19.3049 109.442 20.004 109.744 20.6472C110.044 21.2904 110.45 21.8486 110.962 22.3219C111.475 22.7952 112.091 23.1642 112.806 23.4287C113.522 23.6909 114.299 23.8244 115.133 23.8244C116.287 23.8244 117.383 23.5719 118.42 23.0646C119.458 22.5598 120.351 21.8316 121.099 20.885L121.195 21.6447C121.324 22.3195 121.633 22.8413 122.126 23.2078C122.619 23.5768 123.344 23.7612 124.307 23.7612C124.606 23.7612 124.938 23.7467 125.302 23.7127C125.666 23.6811 126.072 23.6132 126.52 23.5064V19.2418C126.114 19.2006 125.829 19.0792 125.668 18.8778C125.507 18.6787 125.428 18.3244 125.428 17.8195L125.431 17.8171ZM120.297 17.9433C120.297 18.3656 120.052 18.7661 119.559 19.1447C119.217 19.4603 118.784 19.7127 118.26 19.9045C117.735 20.0938 117.195 20.1884 116.638 20.1884C115.91 20.1884 115.311 19.9943 114.841 19.6035C114.371 19.2151 114.136 18.7127 114.136 18.1035C114.136 17.4287 114.44 16.8826 115.049 16.4603C115.658 16.0379 116.433 15.8292 117.376 15.8292C117.826 15.8292 118.312 15.8778 118.836 15.9724C119.361 16.0671 119.846 16.1981 120.297 16.368V17.9481V17.9433Z" fill="white"/>
<path d="M137.319 19.0636C137.056 19.2122 136.768 19.3219 136.452 19.3975C136.134 19.4731 135.846 19.5072 135.583 19.5072C134.469 19.5072 133.913 18.8734 133.913 17.6035V0.138672H128.673V19.3804C128.673 20.8186 129.077 21.9203 129.883 22.6808C130.692 23.4438 131.849 23.824 133.355 23.824C134.097 23.824 134.893 23.7387 135.745 23.5705C136.596 23.4023 137.349 23.1683 138.003 22.8734L137.316 19.066L137.319 19.0636Z" fill="white"/>
</svg>
