<svg width="50" height="49" viewBox="0 0 50 49" fill="none" xmlns="http://www.w3.org/2000/svg">
<path d="M30.3362 5.76747H27.9262C27.791 5.76747 27.6734 5.85219 27.6352 5.97362L23.6852 18.41L19.7234 5.97362C19.6852 5.85219 19.5676 5.76747 19.4324 5.76747H17.0078C16.8373 5.76747 16.7168 5.92561 16.7668 6.08092L22.0981 22.8181C22.1452 22.9622 22.2803 23.0582 22.4361 23.0582H24.9784C25.1136 23.0582 25.2311 22.9735 25.2693 22.852L30.5772 6.14305C30.5889 6.10634 30.5919 6.0668 30.5889 6.03009C30.6036 5.89172 30.489 5.76465 30.3362 5.76465V5.76747Z" fill="white"/>
<path d="M48.7483 31.1289H40.6917C40.5412 31.1289 40.4078 31.2277 40.3652 31.3689L35.2127 48.1062C35.1644 48.2615 35.2808 48.4196 35.4455 48.4196H37.7421C37.8925 48.4196 38.026 48.3208 38.0686 48.1796L40.9017 38.9765L43.7605 48.1824C43.8059 48.3264 43.9365 48.4224 44.0869 48.4224H46.3949C46.5596 48.4224 46.6788 48.2643 46.6277 48.1062L43.7917 38.9765H46.463C46.6135 38.9765 46.7469 38.8777 46.7895 38.7365L49.0237 31.5073C49.0805 31.3181 48.9414 31.1289 48.7426 31.1289H48.7483ZM44.2714 37.5391H41.3446L42.8747 32.5691H45.8073L44.2714 37.5391Z" fill="white"/>
<path d="M27.3773 23.0582H29.7401C29.8716 23.0582 29.9861 22.9735 30.0232 22.852L35.1893 6.14305C35.2465 5.95385 35.1063 5.76465 34.9061 5.76465H32.612C32.4804 5.76465 32.366 5.84937 32.3288 5.97079L27.1428 22.7419C27.0941 22.8972 27.2143 23.0554 27.3773 23.0554V23.0582Z" fill="white"/>
<path d="M38.3646 31.1317H36.0705C35.9389 31.1317 35.8245 31.2164 35.7873 31.3379L30.6013 48.109C30.5526 48.2643 30.6728 48.4224 30.8358 48.4224H33.1986C33.3301 48.4224 33.4446 48.3377 33.4817 48.2163L38.6478 31.5073C38.705 31.3209 38.5648 31.1289 38.3646 31.1289V31.1317Z" fill="white"/>
<path d="M35.9926 25.3643H27.2206C27.0864 25.3643 26.9641 25.449 26.9254 25.5704L25.2557 30.7433C25.196 30.9325 25.3421 31.1217 25.5508 31.1217H33.0825L28.2582 46.0476L21.6389 25.5732C21.6002 25.449 21.4809 25.3671 21.3437 25.3671H15.9112C15.7024 25.3671 15.5563 25.5563 15.616 25.7455L22.8703 48.1823C22.918 48.3263 23.0552 48.4223 23.2132 48.4223H28.7621C28.9201 48.4223 29.0603 48.3235 29.105 48.1823L36.3385 25.8076C36.41 25.5873 36.2371 25.3671 35.9956 25.3671L35.9926 25.3643Z" fill="white"/>
<path d="M21.3535 22.6796L14.1022 0.240041C14.0545 0.0960163 13.9173 0 13.7593 0H8.21042C8.05239 0 7.91225 0.0988403 7.86753 0.240041L0.631054 22.6175C0.559495 22.8378 0.732431 23.058 0.973945 23.058H9.74895C9.88312 23.058 10.0054 22.9733 10.0441 22.8519L11.7139 17.6783C11.7735 17.4891 11.6274 17.2999 11.4187 17.2999H3.88702L8.71133 2.37499L15.3306 22.8519C15.3694 22.9761 15.4886 23.058 15.6258 23.058H21.0584C21.2671 23.058 21.4132 22.8688 21.3535 22.6796Z" fill="white"/>
</svg>
