<svg width="130" height="24" viewBox="0 0 130 24" fill="none" xmlns="http://www.w3.org/2000/svg">
<path d="M0.0302734 23.1244V0.43424H14.7355V4.3895H4.72597V9.79613H13.7595V13.7514H4.72597V23.1244H0.0302734Z" fill="white"/>
<path d="M17.894 23.1244V0.43424H26.6564C28.3337 0.43424 29.7652 0.740763 30.9508 1.35381C32.1437 1.95947 33.0511 2.81995 33.6728 3.93525C34.3018 5.04317 34.6163 6.34682 34.6163 7.8462C34.6163 9.35296 34.2982 10.6492 33.662 11.735C33.0258 12.8134 32.104 13.6406 30.8966 14.2167C29.6965 14.7928 28.2433 15.0809 26.5371 15.0809H20.6702V11.2253H25.778C26.6745 11.2253 27.4191 11.0998 28.012 10.8486C28.6048 10.5975 29.0458 10.2208 29.335 9.71858C29.6314 9.21632 29.7796 8.59219 29.7796 7.8462C29.7796 7.09281 29.6314 6.45761 29.335 5.94058C29.0458 5.42355 28.6012 5.03209 28.0011 4.76619C27.4083 4.49291 26.66 4.35626 25.7563 4.35626H22.5897V23.1244H17.894ZM29.8881 12.7986L35.4079 23.1244H30.2242L24.8237 12.7986H29.8881Z" fill="white"/>
<path d="M37.9347 23.1244V0.43424H52.9002V4.3895H42.6304V9.79613H52.1303V13.7514H42.6304V19.1691H52.9436V23.1244H37.9347Z" fill="white"/>
<path d="M75.2102 0.43424V23.1244H71.1543L61.4918 8.84332H61.3292V23.1244H56.6335V0.43424H60.7544L70.341 14.7042H70.5362V0.43424H75.2102Z" fill="white"/>
<path d="M98.686 8.378H93.9361C93.8493 7.75018 93.6722 7.19253 93.4047 6.70504C93.1372 6.21017 92.7938 5.78917 92.3744 5.44202C91.9551 5.09487 91.4707 4.82897 90.9213 4.64432C90.379 4.45967 89.7898 4.36734 89.1536 4.36734C88.0041 4.36734 87.0028 4.65909 86.1497 5.24259C85.2965 5.81871 84.635 6.66073 84.1651 7.76864C83.6952 8.86917 83.4602 10.2061 83.4602 11.7793C83.4602 13.3969 83.6952 14.7559 84.1651 15.8564C84.6423 16.957 85.3074 17.7879 86.1605 18.3492C87.0136 18.9106 88.0005 19.1913 89.1211 19.1913C89.7501 19.1913 90.332 19.1063 90.867 18.9364C91.4093 18.7666 91.8901 18.5191 92.3094 18.1941C92.7287 17.8618 93.0757 17.4592 93.3504 16.9865C93.6324 16.5138 93.8276 15.9746 93.9361 15.3689L98.686 15.3911C98.5631 16.4325 98.2558 17.4371 97.7642 18.4046C97.2798 19.3648 96.6255 20.2253 95.8013 20.9861C94.9844 21.7395 94.0084 22.3377 92.8733 22.7809C91.7455 23.2167 90.4694 23.4346 89.0452 23.4346C87.0642 23.4346 85.2929 22.9766 83.7313 22.0608C82.1769 21.1449 80.9479 19.8191 80.0442 18.0833C79.1477 16.3476 78.6994 14.2463 78.6994 11.7793C78.6994 9.30495 79.1549 7.19991 80.0659 5.46418C80.9768 3.72844 82.2131 2.40633 83.7747 1.49784C85.3363 0.581962 87.0931 0.124023 89.0452 0.124023C90.332 0.124023 91.5249 0.308676 92.6239 0.677981C93.73 1.04729 94.7096 1.58647 95.5627 2.29554C96.4158 2.99722 97.1099 3.8577 97.6449 4.87698C98.1871 5.89627 98.5341 7.06327 98.686 8.378Z" fill="white"/>
<path d="M102.053 23.1244V0.43424H106.749V9.79613H116.281V0.43424H120.966V23.1244H116.281V13.7514H106.749V23.1244H102.053Z" fill="white"/>
<path d="M129.533 0.43424V23.1244H124.838V0.43424H129.533Z" fill="white"/>
</svg>
