<svg width="136" height="30" viewBox="0 0 136 30" fill="none" xmlns="http://www.w3.org/2000/svg">
<path d="M27.5345 5.16309H24.6636V21.6711H27.5345V5.16309Z" fill="white"/>
<path d="M43.6841 6.11433C43.149 5.72458 42.477 5.46035 41.694 5.32163C41.1394 5.21593 40.3433 5.16309 39.3124 5.16309H33.2769V21.6711H35.802V15.1643H39.4886C41.7201 15.1643 43.2991 14.6623 44.1734 13.6648C45.0412 12.6805 45.4784 11.4584 45.4784 10.0448C45.4784 9.21907 45.3153 8.44619 44.989 7.75257C44.6628 7.05235 44.2191 6.50407 43.6775 6.10772L43.6841 6.11433ZM39.5212 12.7796H35.802V7.561H39.4755C40.3694 7.561 40.9828 7.60724 41.3025 7.69312C41.7788 7.83184 42.1507 8.10929 42.4443 8.53867C42.738 8.97465 42.888 9.50312 42.888 10.1175C42.888 10.9762 42.6466 11.617 42.1442 12.086C41.6418 12.5484 40.7609 12.7862 39.5147 12.7862L39.5212 12.7796Z" fill="white"/>
<path d="M59.3821 11.7293H51.6709V5.16309H49.0669V21.6711H51.6709V14.1206H59.3821V21.6711H61.9862V5.16309H59.3821V11.7293Z" fill="white"/>
<path d="M70.929 5.16309L64.8569 21.6711H67.544L69.2267 16.8224H75.2922L77.0793 21.6711H79.9294L73.4595 5.16309H70.9355H70.929ZM74.4835 14.5962H69.9898L71.5551 10.2364C71.8029 9.53615 72.0116 8.81611 72.1877 8.10268C72.403 8.79629 72.6769 9.60221 73.003 10.5006L74.4835 14.5962Z" fill="white"/>
<path d="M93.1889 14.7482C93.0111 14.583 92.7937 14.4179 92.5236 14.2527C93.7159 13.9885 94.6382 13.5063 95.2641 12.8192C96.0151 11.9935 96.3972 10.9696 96.3972 9.78056C96.3972 8.85575 96.1666 8.00359 95.7186 7.24392C95.2641 6.47104 94.6382 5.92276 93.874 5.61228C93.1296 5.31502 92.0361 5.16309 90.6329 5.16309H83.5181V21.6711H86.0675V14.5632H88.1954C88.7026 14.5632 89.0716 14.5896 89.2758 14.6292C89.5656 14.7019 89.8489 14.834 90.1322 15.019C90.4155 15.204 90.7449 15.5475 91.1138 16.0297C91.4959 16.5383 91.99 17.2716 92.5829 18.2162L94.7041 21.6645H97.8728L94.9413 16.9215C94.3945 16.0561 93.8082 15.3229 93.2021 14.7415L93.1889 14.7482ZM93.4063 11.0819C93.156 11.4783 92.8068 11.7623 92.3259 11.9407C91.8253 12.1322 91.1204 12.2247 90.2178 12.2247H86.0675V7.42889H90.7185C91.7989 7.42889 92.5894 7.65349 93.0703 8.09608C93.5512 8.53867 93.7884 9.08695 93.7884 9.78056C93.7884 10.2496 93.6632 10.6856 93.4129 11.0819H93.4063Z" fill="white"/>
<path d="M109.677 16.4723C109.449 17.1791 109.254 17.7736 109.098 18.2691C108.968 17.8331 108.799 17.298 108.604 16.6704L104.932 5.16309H101.461V21.6711H103.905V9.35779L107.896 21.6711H110.073L114.09 9.54936V21.6711H116.534V5.16969H113.388L109.677 16.4789V16.4723Z" fill="white"/>
<path d="M129.436 5.16309H126.912L120.84 21.6711H123.527L125.21 16.8224H131.276L133.063 21.6711H135.913L129.443 5.16309H129.436ZM130.46 14.5962H125.973L127.539 10.2364C127.786 9.53615 127.995 8.81611 128.171 8.10268C128.386 8.79629 128.66 9.60221 128.986 10.5006L130.467 14.5962H130.46Z" fill="white"/>
<path d="M4.86836 16.6401C4.86836 16.6401 4.86836 16.6401 4.87483 16.6467C5.0821 15.1418 6.2091 13.1939 7.88664 11.3177C9.67429 9.31773 12.699 7.50016 14.8235 6.18421C16.948 4.86175 17.7835 3.4546 18.0426 2.46438C18.3081 1.47416 18.1656 0.138672 18.1656 0.138672H13.5734C13.5734 0.138672 14.3053 1.25267 13.4633 2.83571C12.6796 4.32104 9.06545 5.83894 7.46563 7.10929C4.47326 9.49363 3.20377 10.6728 2.41357 11.7998C2.60141 13.9366 3.0548 14.6662 4.86188 16.6336L4.86836 16.6401Z" fill="#5BC5F2"/>
<path d="M8.15548 0.138672H4.37031C4.37031 0.138672 2.99566 1.37001 2.41583 2.45228C2.36371 3.59937 3.22368 5.05753 3.89472 5.88058C4.2335 2.95778 8.15548 0.138672 8.15548 0.138672Z" fill="#F7A600"/>
<path d="M20.357 29.5591C20.357 29.5591 20.2396 28.1436 19.4703 27.0074C18.701 25.8711 17.0517 24.157 14.1636 22.6961C13.2509 22.2351 12.1426 21.7026 11.0017 21.1378C12.2534 19.995 13.6355 18.3523 14.3135 17.0277C14.0853 16.8459 13.8376 16.6576 13.5573 16.4693C12.9771 17.677 11.432 19.56 10.1281 20.6962C9.59352 20.4235 9.05893 20.1443 8.5439 19.8586C10.1281 18.7678 11.4906 17.1446 12.1165 15.6188C11.8623 15.4824 11.5884 15.3396 11.3016 15.1967C10.7344 16.6901 9.26755 18.3523 7.63119 19.3392C7.16832 19.073 6.73804 18.7938 6.33385 18.5276C7.86589 17.5212 9.2154 16.0083 9.91297 14.5345C9.64567 14.4111 9.36534 14.2877 9.07849 14.1579C8.41352 15.5603 7.03142 17.0407 5.51893 17.9367C5.18644 17.677 4.89307 17.4108 4.65837 17.1576C2.83948 15.1902 2.38964 14.4695 2.19406 12.3398C2.18754 12.3398 0.903229 13.9761 0.981461 15.8525C1.08577 18.3003 2.27229 19.7807 3.90213 21.2416C5.53197 22.7025 8.71341 24.4491 11.2625 25.7737C13.9354 27.1632 16.4388 28.3709 15.4479 29.5656H20.357V29.5591Z" fill="#00699D"/>
<path d="M8.69665 13.5962C9.1135 13.7834 9.50388 13.9639 9.88103 14.1377C10.3905 14.3783 10.8537 14.6056 11.2904 14.8195C11.2904 14.8195 11.297 14.8195 11.3036 14.8262C12.3755 15.3744 13.229 15.8758 13.9039 16.3638C13.9436 16.3905 13.9833 16.4172 14.0164 16.444C14.1289 16.5309 14.2348 16.6178 14.3406 16.698C14.3406 16.698 14.3406 16.698 14.3472 16.698C15.697 17.8077 16.1602 18.9107 16.2263 20.4148C16.2925 22.046 15.7698 22.935 15.5051 23.276C15.7963 23.4565 16.0808 23.637 16.3388 23.8241C16.802 23.4297 17.9599 22.3 18.5686 20.4616C19.3031 18.2422 18.8664 16.4975 17.5034 14.8663C16.2594 13.3756 14.4862 12.4197 10.2317 10.2938C6.90356 8.62262 4.92519 6.79763 4.23706 5.99544C3.54894 5.19325 2.54983 3.54876 2.60276 2.29199C2.1793 3.04739 1.69629 4.14372 1.69629 5.14646C1.69629 6.1492 2.03374 10.6348 8.69004 13.5962H8.69665Z" fill="#E63312"/>
<path d="M13.1797 21.881C13.5208 22.056 13.8496 22.2245 14.1473 22.3866C14.5877 22.62 14.9846 22.8599 15.3692 23.1062C15.6173 22.7756 16.1073 21.9134 16.0453 20.3316C16.0143 19.4758 15.8468 18.7498 15.4622 18.082C15.4312 19.048 14.7303 20.351 13.1797 21.881Z" fill="#F7A600"/>
<path d="M11.1002 25.411C10.5941 25.1406 10.0567 24.8445 9.5131 24.542C9.40687 24.6128 9.3069 24.6836 9.20067 24.7544C4.82051 27.6254 1.69629 28.8484 1.69629 28.8484H8.35713C8.35713 28.8484 9.46311 28.3785 12.4624 26.1513C12.025 25.9131 11.5626 25.6685 11.1002 25.4174V25.411Z" fill="#F7A600"/>
</svg>
