<svg width="463" height="124" viewBox="0 0 463 124" fill="none" xmlns="http://www.w3.org/2000/svg">
<path fill-rule="evenodd" clip-rule="evenodd" d="M353 14C353 10.1087 354.71 6.61664 357.419 4.2342C361.658 10.0935 361.677 17.9861 357.521 23.8548C354.753 21.4708 353 17.9401 353 14ZM358.196 3.60214C362.731 9.82898 362.751 18.2419 358.305 24.4788C360.459 26.0636 363.12 27 366 27C369.018 27 371.794 25.9726 374 24.2474C369.615 18.2063 369.728 9.95383 374.339 4.0265C372.082 2.13727 369.174 1 366 1C363.072 1 360.369 1.96828 358.196 3.60214ZM380 14C380 18.1251 378.216 21.8335 375.377 24.3957C375.253 24.5074 375.128 24.6169 375 24.7242C374.916 24.795 374.831 24.8647 374.745 24.9335C374.701 24.9689 374.656 25.0041 374.612 25.039C372.237 26.8944 369.247 28 366 28C358.268 28 352 21.732 352 14C352 6.26801 358.268 0 366 0C373.732 0 380 6.26801 380 14ZM375.083 4.69924C370.806 10.2504 370.7 17.943 374.766 23.5998C377.369 21.2214 379 17.8015 379 14C379 10.3547 377.5 7.05983 375.083 4.69924ZM359 124V37H373V124H359ZM18.5 37.5L0 124H14L22 77L45.5 124L68.5 77L76.5 124H90.5L72 37.5L45.5 99.5L18.5 37.5ZM143 37.5L180 124H167L158.5 103H127.5L119 124H106L143 37.5ZM131.75 92.5L143 62.5L154.25 92.5H131.75ZM217 37.5H196.5V40V49.5V112V116.5V123.5H217C232.5 123.5 240.9 120.6 248.5 113C257.176 104.324 259.18 92.729 259.462 80.5C259.18 68.2709 257.176 56.6759 248.5 48C238.382 37.8821 227.361 37.6982 219.864 37.5731H219.864C218.84 37.556 217.881 37.5401 217 37.5ZM209 112V49.5H217C217.542 49.5 218.128 49.4903 218.752 49.4799C224.448 49.3854 233.24 49.2396 240 56C245.2 61.2 247.333 75.1667 247.5 80C247.833 85.1667 246.4 100.6 240 105C232 110.5 227.5 112 217 112H209ZM306.5 37.5L343.5 124H330.5L322 103H291L282.5 124H269.5L306.5 37.5ZM306.5 62.5L317.75 92.5H295.25L306.5 62.5ZM463 124L426 37.5L389 124H402L410.5 103H441.5L450 124H463ZM437.25 92.5L426 62.5L414.75 92.5H437.25Z" fill="white"/>
</svg>
