<svg width="122" height="30" viewBox="0 0 122 30" fill="none" xmlns="http://www.w3.org/2000/svg">
<path d="M16.6075 23.8242V11.1094L11.6568 20.5732H9.57105L4.65469 11.1094V23.8242H0.930176V4.44531H4.95265L10.6025 15.4363L16.3096 4.44531H20.3091V23.8127H16.6075V23.8242Z" fill="white"/>
<path d="M24.6157 7.22745V3.72754H28.2044V7.22745H24.6157ZM24.6157 23.0952V9.19686H28.2044V23.1065H24.6157V23.0952Z" fill="white"/>
<path d="M36.881 23.8511C35.9154 23.8511 35.0323 23.658 34.2315 23.2831C33.4308 22.9082 32.7361 22.397 32.1591 21.7381C31.5821 21.0792 31.1464 20.3294 30.8284 19.466C30.5105 18.6026 30.3574 17.6937 30.3574 16.7281C30.3574 15.7056 30.5223 14.7627 30.8402 13.888C31.1581 13.0132 31.6292 12.2407 32.2297 11.5704C32.8303 10.9002 33.5486 10.3776 34.3728 10.0141C35.1971 9.65052 36.1038 9.46875 37.1047 9.46875C38.2352 9.46875 39.2243 9.70732 40.0721 10.1958C40.92 10.673 41.6265 11.3319 42.1799 12.1498V9.6846H45.4299V22.965C45.4299 24.351 45.0767 25.5325 44.3701 26.5208C43.6636 27.5092 42.7098 28.259 41.5087 28.7815C40.3076 29.3041 38.9181 29.5654 37.3402 29.5654C35.7623 29.5654 34.4317 29.3155 33.3366 28.8043C32.2415 28.293 31.3112 27.5773 30.5341 26.6458L32.5594 24.7486C33.1129 25.4075 33.8076 25.9301 34.6554 26.305C35.5033 26.6799 36.3864 26.873 37.3285 26.873C38.1056 26.873 38.8239 26.748 39.4951 26.4867C40.1663 26.2254 40.6844 25.8278 41.073 25.2712C41.4616 24.7145 41.6618 24.0102 41.6618 23.124V21.3518C41.2026 22.1584 40.5314 22.7832 39.6482 23.2149C38.7651 23.658 37.8348 23.8738 36.8574 23.8738L36.881 23.8511ZM38.1292 20.9883C38.5531 20.9883 38.9535 20.9201 39.3067 20.7951C39.6718 20.6702 40.0015 20.4998 40.3194 20.2839C40.6373 20.0681 40.9082 19.8181 41.1555 19.5228C41.391 19.2274 41.5676 18.9207 41.6854 18.5912V15.2626C41.4852 14.7059 41.179 14.2288 40.7786 13.8084C40.3783 13.3995 39.9308 13.0814 39.448 12.8542C38.9535 12.627 38.4471 12.5134 37.9054 12.5134C37.3638 12.5134 36.8339 12.627 36.3629 12.8655C35.8919 13.1041 35.4915 13.4222 35.15 13.8312C34.8203 14.2401 34.5612 14.7059 34.3728 15.2285C34.1844 15.7511 34.0902 16.285 34.0902 16.8417C34.0902 17.3984 34.1962 17.955 34.4082 18.4549C34.6201 18.9547 34.9027 19.3978 35.2678 19.7841C35.6328 20.1703 36.0567 20.4657 36.5631 20.6702C37.0576 20.8747 37.5757 20.9769 38.1174 20.9769L38.1292 20.9883Z" fill="white"/>
<path d="M57.6198 12.7823C56.4892 12.8052 55.4753 13.0116 54.6012 13.4243C53.7271 13.8256 53.0861 14.4333 52.6781 15.2244V23.8235H49.0186V9.78978H52.3984V12.6791C52.9112 11.7045 53.5639 10.9363 54.3681 10.386C55.1606 9.82418 55.9997 9.52608 56.8855 9.46875C57.072 9.49168 57.2118 9.49168 57.3284 9.48022C57.4449 9.46875 57.5382 9.48022 57.6314 9.51461V12.7823H57.6198Z" fill="white"/>
<path d="M65.9028 23.8235C64.7506 23.8235 63.7031 23.6308 62.7719 23.2566C61.8408 22.8824 61.0377 22.3608 60.3859 21.6918C59.7225 21.0342 59.222 20.2745 58.8729 19.4354C58.5237 18.585 58.3491 17.678 58.3491 16.7142C58.3491 15.7504 58.6517 14.2083 59.2686 13.1085C59.8855 12.0086 60.7468 11.1242 61.8757 10.4666C63.0047 9.80891 64.3548 9.46875 65.9261 9.46875C67.4974 9.46875 68.8126 9.79757 69.9299 10.4666C71.0473 11.1242 71.9086 11.9973 72.5138 13.0744C73.119 14.1516 73.4216 15.3308 73.4216 16.6008C73.4216 16.8276 73.4216 17.043 73.3983 17.2471C73.3751 17.4512 73.3634 17.6213 73.3402 17.7687H62.2482C62.3064 18.5057 62.5042 19.118 62.8651 19.6395C63.2259 20.1498 63.6798 20.5466 64.2385 20.8301C64.7971 21.1136 65.3907 21.2496 66.0076 21.2496C66.7525 21.2496 67.4625 21.0796 68.1026 20.7281C68.7544 20.3766 69.1967 19.9117 69.4294 19.3221L72.5603 20.1725C72.2344 20.8868 71.7456 21.5218 71.1055 22.066C70.4653 22.6103 69.7088 23.0525 68.8242 23.3586C67.9513 23.6648 66.962 23.8235 65.8912 23.8235H65.9028ZM62.1434 15.5123H69.6622C69.5924 14.8093 69.3829 14.2083 69.0454 13.6981C68.7078 13.1878 68.2656 12.7796 67.7185 12.4962C67.1715 12.2127 66.5546 12.0653 65.8796 12.0653C65.2045 12.0653 64.6225 12.2127 64.0871 12.4962C63.5518 12.7796 63.1095 13.1878 62.7719 13.6981C62.4344 14.2083 62.2249 14.8206 62.1551 15.5123H62.1434Z" fill="white"/>
<path d="M89.2117 23.812H85.4645V15.9244C85.4645 14.7926 85.2629 13.9727 84.8597 13.453C84.4566 12.9333 83.8874 12.6792 83.1403 12.6792C82.6422 12.6792 82.1323 12.8063 81.6106 13.0488C81.0888 13.2913 80.6382 13.6378 80.235 14.0766C79.8318 14.5154 79.5235 15.012 79.2982 15.5779V23.8235H75.5747V9.68817H78.9543V12.3212C79.3219 11.7092 79.8081 11.201 80.3773 10.7853C80.9584 10.3695 81.6224 10.0462 82.3576 9.8152C83.1047 9.58424 83.8992 9.46875 84.7649 9.46875C85.678 9.46875 86.425 9.63043 87.018 9.94224C87.6109 10.254 88.0496 10.6813 88.3579 11.2241C88.6663 11.7669 88.8797 12.3559 88.9983 13.0141C89.1169 13.6724 89.1762 14.3307 89.1762 14.9889V23.8235L89.2117 23.812Z" fill="white"/>
<path d="M98.8835 23.8235C97.708 23.8235 96.6605 23.6309 95.741 23.2457C94.8215 22.8605 94.0301 22.328 93.3667 21.6595C92.7032 20.9911 92.2144 20.232 91.8769 19.3709C91.5393 18.5212 91.3647 17.6148 91.3647 16.6631C91.3647 15.7114 91.5277 14.7484 91.8769 13.8873C92.2144 13.0263 92.7149 12.2672 93.355 11.5987C94.0068 10.9416 94.7982 10.4204 95.7294 10.0352C96.6605 9.66136 97.708 9.46875 98.8603 9.46875C100.013 9.46875 101.107 9.66136 102.026 10.0352C102.946 10.4204 103.737 10.9303 104.4 11.5987C105.064 12.2559 105.564 13.0263 105.913 13.8873C106.263 14.7484 106.437 15.6774 106.437 16.6631C106.437 17.6148 106.263 18.5212 105.913 19.3709C105.564 20.2207 105.064 20.9911 104.4 21.6595C103.737 22.328 102.946 22.8605 102.026 23.2457C101.107 23.6309 100.059 23.8235 98.8835 23.8235ZM95.1241 16.6631C95.1241 17.4449 95.2871 18.1587 95.613 18.7818C95.9389 19.4163 96.3928 19.9034 96.9747 20.2433C97.5567 20.5832 98.1852 20.7645 98.8835 20.7645C99.5819 20.7645 100.21 20.5832 100.781 20.232C101.351 19.8694 101.805 19.3823 102.142 18.7705C102.48 18.1587 102.655 17.4335 102.655 16.6291C102.655 15.8247 102.48 15.1449 102.142 14.5218C101.805 13.8987 101.351 13.4115 100.781 13.0489C100.21 12.6864 99.5702 12.5164 98.8603 12.5164C98.1503 12.5164 97.5334 12.6977 96.9631 13.0489C96.3928 13.4115 95.9505 13.8987 95.613 14.5218C95.2871 15.1449 95.1241 15.8587 95.1241 16.6518V16.6631Z" fill="white"/>
<path d="M108.602 3.72754H112.308V19.0015C112.308 19.6691 112.414 20.118 112.636 20.3482C112.859 20.5784 113.152 20.6935 113.516 20.6935C113.844 20.6935 114.161 20.6589 114.466 20.5899C114.771 20.5208 115.041 20.4172 115.275 20.2906L115.768 23.0876C115.275 23.3178 114.689 23.5019 114.044 23.6285C113.399 23.7551 112.789 23.8242 112.238 23.8242C111.077 23.8242 110.174 23.5249 109.54 22.9149C108.907 22.3049 108.59 21.4531 108.59 20.3366V3.72754H108.602Z" fill="white"/>
<path d="M117.909 6.59832C117.398 6.59832 116.923 6.51995 116.483 6.35202C116.044 6.18409 115.663 5.96019 115.343 5.66911C115.022 5.37804 114.772 5.04218 114.594 4.63915C114.416 4.24732 114.333 3.81071 114.333 3.3517C114.333 2.8927 114.428 2.46728 114.594 2.07545C114.772 1.68361 115.022 1.33656 115.343 1.05668C115.663 0.765604 116.044 0.5417 116.483 0.384967C116.923 0.217038 117.398 0.138672 117.909 0.138672C118.42 0.138672 118.896 0.217038 119.335 0.384967C119.775 0.552895 120.155 0.7768 120.476 1.05668C120.797 1.34776 121.046 1.68361 121.237 2.07545C121.415 2.46728 121.51 2.8927 121.51 3.3517C121.51 3.81071 121.415 4.24732 121.237 4.63915C121.058 5.03098 120.809 5.37804 120.476 5.66911C120.155 5.96019 119.775 6.18409 119.335 6.35202C118.896 6.51995 118.42 6.59832 117.909 6.59832ZM117.909 6.1617C118.337 6.1617 118.741 6.09453 119.121 5.96019C119.502 5.82585 119.823 5.63553 120.096 5.38923C120.369 5.14294 120.583 4.85186 120.749 4.50481C120.904 4.15776 120.987 3.78832 120.987 3.38529C120.987 2.98226 120.916 2.62401 120.749 2.28815C120.595 1.9523 120.381 1.65003 120.108 1.40373C119.834 1.15744 119.514 0.955923 119.133 0.810385C118.753 0.664847 118.349 0.597676 117.909 0.597676C117.47 0.597676 117.054 0.664847 116.685 0.810385C116.317 0.955923 115.996 1.14624 115.723 1.40373C115.45 1.66122 115.248 1.9523 115.093 2.28815C114.939 2.62401 114.867 2.99345 114.867 3.37409C114.867 3.75473 114.939 4.13537 115.093 4.47122C115.248 4.80708 115.45 5.10935 115.723 5.36684C115.996 5.62433 116.317 5.81465 116.685 5.96019C117.054 6.10573 117.458 6.1729 117.909 6.1729V6.1617ZM116.365 1.38134H118.218C118.408 1.38134 118.587 1.41493 118.753 1.49329C118.919 1.57166 119.062 1.67242 119.181 1.79557C119.3 1.91871 119.395 2.06425 119.454 2.22098C119.525 2.37772 119.549 2.53445 119.549 2.69118C119.549 2.93748 119.478 3.16138 119.335 3.38529C119.193 3.598 119.014 3.75473 118.789 3.8331L119.763 5.32206H118.741L117.862 4.00102H117.256V5.32206H116.353V1.37015L116.365 1.38134ZM118.147 3.26214C118.301 3.26214 118.432 3.21736 118.527 3.1166C118.622 3.01584 118.67 2.8815 118.67 2.70238C118.67 2.51206 118.622 2.36652 118.515 2.27696C118.408 2.1874 118.29 2.14262 118.135 2.14262H117.28V3.27333H118.159L118.147 3.26214Z" fill="white"/>
</svg>
