<svg width="76" height="25" viewBox="0 0 76 25" fill="none" xmlns="http://www.w3.org/2000/svg">
<path d="M-11.3522 5.22714V24.882H-13.751V0.822266H-11.9004L4.20845 20.8499V0.856542H6.60722V24.882H4.51614L-11.3522 5.22714Z" fill="white"/>
<path d="M12.7764 24.882V0.822266H20.965C22.8897 0.822266 24.5717 1.13935 26.011 1.77137C27.4481 2.40339 28.6489 3.26251 29.6134 4.34659C30.5757 5.43067 31.2997 6.70114 31.7873 8.158C32.2749 9.61487 32.5176 11.1681 32.5176 12.8178C32.5176 14.6475 32.2448 16.3036 31.7013 17.7819C31.1579 19.2623 30.3824 20.5264 29.3749 21.5762C28.3675 22.626 27.1538 23.4401 25.7403 24.0164C24.3247 24.5927 22.7329 24.8798 20.9672 24.8798H12.7785L12.7764 24.882ZM30.1375 12.8178C30.1375 11.3717 29.9334 10.0455 29.5253 8.83716C29.1172 7.62882 28.5221 6.58331 27.7423 5.70276C26.9604 4.82222 26.0045 4.13877 24.8703 3.65244C23.7382 3.1661 22.4343 2.92401 20.9629 2.92401H15.1522V22.7824H20.9629C22.458 22.7824 23.7769 22.5274 24.9219 22.0196C26.0647 21.5119 27.0227 20.8113 27.7939 19.9179C28.5629 19.0266 29.1472 17.9747 29.5446 16.7664C29.9399 15.558 30.1397 14.2426 30.1397 12.8178H30.1375Z" fill="white"/>
<path d="M37.4521 24.882V0.822266H39.8809V22.7802H54.1089V24.882H37.4521Z" fill="white"/>
<path d="M57.3359 0.822266L65.1981 13.7669L73.1267 0.822266H75.7017L66.3827 15.9351V24.882H64.0112V15.8687L54.7266 0.822266H57.3359Z" fill="white"/>
</svg>
