<svg width="114" height="117" viewBox="0 0 114 117" fill="none" xmlns="http://www.w3.org/2000/svg">
<path d="M74.701 42.9029C84.6041 52.7424 84.8036 69.5068 75.1997 79.3391C70.3977 84.3592 63.9001 87.0661 56.9038 87.0661C49.9075 87.0661 43.1036 84.1515 38.2019 78.9381C28.8046 68.8981 29.3033 52.6421 39.1993 42.7023L55.999 25.7374C56.1985 25.4366 56.4977 25.3364 56.797 25.3364C57.0962 25.3364 57.3954 25.5369 57.5949 25.7374L60.4946 28.652C60.9933 29.1533 60.9933 29.8551 60.4946 30.3564L43.4954 47.4216C35.8935 55.0483 35.694 67.3942 42.9967 74.9278C46.5946 78.7448 51.4963 80.7499 56.6972 80.7499C61.8981 80.7499 66.7998 78.6445 70.3977 74.9278C77.7004 67.4014 77.5009 55.0554 69.899 47.4216L64.6981 42.2011L51.2968 55.6498C48.3971 58.5644 47.9981 63.076 50.3991 66.1911C51.9024 68.1963 54.1965 69.3063 56.5975 69.3063C58.6992 69.3063 60.5943 68.5042 62.0976 67.0004C64.2991 64.7947 64.9973 61.5793 63.9001 58.6719L59.4972 63.0903C59.1979 63.3911 58.799 63.5916 58.4 63.5916C58.001 63.5916 57.602 63.3911 57.3028 63.0903L55.0016 60.7844C54.4031 60.1829 54.4031 59.0801 55.0016 58.4785L63.5012 49.9495C63.8004 49.6487 64.0996 49.5485 64.4986 49.5485C64.8976 49.5485 65.1968 49.6487 65.496 49.9495L66.4935 50.9521C71.8939 56.4734 72.3926 65.2029 67.4909 70.8245C64.7907 73.9396 60.7938 75.7442 56.6901 75.7442C52.5863 75.7442 48.5895 73.9396 45.8893 70.8245C40.9876 65.1026 41.4863 56.4734 46.8867 50.9521L63.8859 33.8869C64.1851 33.5861 64.4844 33.4859 64.7836 33.4859C65.1826 33.4859 65.4818 33.6864 65.6813 33.8869L74.6796 42.9243L74.701 42.9029ZM99.302 58.8652C99.302 82.354 80.3009 101.424 57.0036 101.424C33.7063 101.424 14.7051 82.354 14.7051 58.8652C14.7051 35.3764 33.7063 16.3061 57.0036 16.3061C80.3009 16.3061 99.302 35.3764 99.302 58.8652ZM96.7016 58.9655C96.7016 36.8803 78.9044 19.013 57.0036 19.013C35.1027 19.013 17.3055 36.78 17.3055 58.8652C17.3055 80.9504 35.1027 98.8177 57.0036 98.8177C78.9044 98.8177 96.7016 81.0507 96.7016 58.9655ZM111.699 56.5593C110.395 56.5593 109.398 57.5619 109.398 58.8652C109.398 60.1686 110.395 61.1711 111.699 61.1711C113.003 61.1711 114 60.1686 114 58.8652C114 57.6621 113.003 56.5593 111.699 56.5593ZM4.60246 58.9655C4.60246 57.6621 3.60502 56.6596 2.30123 56.6596C0.997438 56.6596 0 57.6621 0 58.8652C0 60.1686 0.997438 61.2714 2.30123 61.2714C3.60502 61.2714 4.60246 60.2688 4.60246 58.9655ZM8.52809 45.0297L0.527217 42.0793L1.79539 38.599C2.05187 37.8829 2.40098 37.3099 2.82845 36.8731C3.25592 36.4363 3.74039 36.157 4.27473 36.0281C4.8162 35.9064 5.37904 35.9493 5.9775 36.1713C6.57596 36.3933 7.03194 36.7227 7.35967 37.1667C7.68739 37.6107 7.86551 38.1407 7.90113 38.7565L11.1357 37.8972L10.409 39.8951L7.60902 40.6256L7.5734 40.7187L6.98206 42.3371L9.21205 43.1607L8.53522 45.0226L8.52809 45.0297ZM6.15562 38.8711C6.02025 38.4916 5.72814 38.2194 5.28642 38.0547C4.83757 37.89 4.4386 37.9043 4.08949 38.112C3.74039 38.3125 3.46966 38.6992 3.26305 39.2578L2.70733 40.776L5.50016 41.8072L6.05587 40.289C6.26248 39.7304 6.29098 39.2578 6.15562 38.8783V38.8711ZM15.5529 30.2418L14.1921 29.4254L11.8125 33.4286L10.1169 32.4117L12.1474 28.9958L10.8293 28.208L8.79883 31.6239L7.21005 30.6715L9.51128 26.8044L8.15049 25.9881L4.8447 31.5523L12.1687 35.9493L15.5529 30.249V30.2418ZM16.9493 28.3298L10.5586 22.6581L13.0023 19.8795C13.501 19.3138 14.0282 18.8985 14.5911 18.6478C15.1468 18.3972 15.7025 18.3112 16.244 18.39C16.7926 18.4688 17.2984 18.7266 17.7758 19.1419C18.246 19.5573 18.5523 20.0371 18.702 20.5742C18.8516 21.1113 18.8373 21.6698 18.6521 22.2571C18.4668 22.8443 18.1249 23.4172 17.6261 23.9901L16.4862 25.2863L18.246 26.8546L16.9422 28.3441L16.9493 28.3298ZM16.3509 22.9947C16.7427 22.5507 16.9422 22.121 16.9564 21.72C16.9707 21.3189 16.7997 20.9609 16.4435 20.6458C16.0872 20.3235 15.7096 20.2018 15.3107 20.2591C14.9117 20.3235 14.5198 20.5742 14.128 21.0253L13.0593 22.2356L15.275 24.2049L16.3437 22.9947H16.3509ZM23.4825 21.276L18.2745 14.4871L21.1956 12.2242C21.794 11.7587 22.3925 11.458 22.9838 11.3147C23.5752 11.1715 24.138 11.193 24.6581 11.3792C25.1782 11.5654 25.6341 11.9091 26.0189 12.4104C26.4036 12.9117 26.6173 13.4416 26.6601 13.993C26.6957 14.5444 26.5746 15.0887 26.2754 15.6258L29.4672 16.6355L27.7858 17.9389L25.0357 17.058L24.9573 17.1153L23.5965 18.168L25.0499 20.0586L23.4897 21.2688L23.4825 21.276ZM22.6347 16.922L23.91 15.9337C24.3802 15.5685 24.6581 15.1889 24.7436 14.7951C24.8291 14.4012 24.7293 14.0145 24.4372 13.635C24.1451 13.2554 23.796 13.0549 23.397 13.0406C22.9981 13.0263 22.5635 13.1981 22.0932 13.5633L20.8179 14.5516L22.6347 16.9148V16.922ZM28.9542 11.8661C28.5908 11.1071 28.4412 10.3408 28.5125 9.56023C28.5837 8.77965 28.8544 8.05637 29.3247 7.4047C29.7949 6.74587 30.4361 6.2231 31.2269 5.83639C32.0177 5.44969 32.8228 5.27066 33.6279 5.30646C34.433 5.34227 35.1597 5.57143 35.8151 6.0011C36.4706 6.43077 36.9836 7.02516 37.3469 7.77708C37.7103 8.53617 37.8599 9.30242 37.7815 10.0902C37.7103 10.8779 37.4395 11.594 36.9693 12.2457C36.4991 12.8974 35.865 13.4201 35.0671 13.8068C34.2691 14.1935 33.4712 14.3726 32.659 14.3368C31.8539 14.301 31.1201 14.0718 30.4717 13.6421C29.8234 13.2124 29.3104 12.6181 28.9471 11.859L28.9542 11.8661ZM30.4503 9.56023C30.4218 10.04 30.5216 10.5127 30.7567 10.9925C30.9918 11.4723 31.2982 11.8447 31.6829 12.1168C32.0676 12.3889 32.5022 12.5393 32.9653 12.5751C33.4284 12.6037 33.8915 12.5106 34.3475 12.2887C34.8035 12.0667 35.1597 11.7659 35.4233 11.3792C35.6869 10.9925 35.8365 10.5628 35.865 10.083C35.8935 9.60319 35.7938 9.13055 35.5587 8.65075C35.3235 8.17095 35.0172 7.79857 34.6325 7.52644C34.2477 7.25431 33.8131 7.10393 33.35 7.06812C32.8798 7.03948 32.4238 7.13257 31.9679 7.35457C31.5119 7.57657 31.1557 7.87734 30.8921 8.26405C30.6285 8.65075 30.4788 9.08043 30.4503 9.56023ZM44.8989 5.14176C44.7778 4.29673 44.8277 3.5448 45.0628 2.90029C45.2979 2.25578 45.6826 1.73301 46.2099 1.33915C46.7442 0.945281 47.3997 0.694638 48.1762 0.572898C48.9528 0.458318 49.6581 0.508447 50.278 0.730444C50.8978 0.952442 51.4179 1.33915 51.824 1.8834C52.2301 2.43481 52.5008 3.12945 52.622 3.98164L53.3059 8.62211L51.3538 8.91572L51.0546 6.88193L47.2002 7.45483L47.4994 9.48862L45.5687 9.77506L44.8847 5.13459L44.8989 5.14176ZM46.8012 4.67628L46.9793 5.88652L50.8337 5.31362L50.6556 4.10338C50.5487 3.40158 50.2994 2.89313 49.9004 2.5852C49.5014 2.27727 49.0027 2.16985 48.4114 2.25578C47.8058 2.34172 47.364 2.59236 47.0719 3.00771C46.7798 3.42306 46.6872 3.97448 46.7941 4.67628H46.8012ZM58.0081 8.65791L56.0346 8.55766L56.4763 0L60.1597 0.193353C60.9149 0.229159 61.5633 0.393867 62.1047 0.673155C62.6462 0.952442 63.0594 1.33199 63.3302 1.81895C63.608 2.29875 63.7291 2.85733 63.6935 3.49467C63.665 4.12486 63.4798 4.66195 63.1592 5.11311C62.8315 5.56427 62.3897 5.90084 61.8198 6.12284C61.2498 6.34484 60.5872 6.43077 59.832 6.39497L58.115 6.30903L57.9939 8.67224L58.0081 8.65791ZM58.2147 4.68344L59.8178 4.76937C60.4091 4.79802 60.8651 4.69776 61.1857 4.45428C61.5063 4.2108 61.6773 3.8599 61.7058 3.38726C61.7271 2.90745 61.5918 2.52791 61.2997 2.25578C61.0076 1.98366 60.5587 1.83327 59.9674 1.79747L58.3644 1.71153L58.2147 4.68344ZM66.2655 7.34025C66.0446 6.58832 66.0446 5.80059 66.2584 4.99137C66.4721 4.17499 66.8568 3.49467 67.4197 2.95042C67.9825 2.40617 68.6522 2.03379 69.4359 1.84759C70.2196 1.6614 71.0389 1.67573 71.8939 1.90488C72.7488 2.13404 73.4684 2.52075 74.0598 3.07216C74.644 3.62358 75.0501 4.27525 75.2709 5.03434C75.4918 5.79343 75.4989 6.574 75.2852 7.39038C75.0714 8.20676 74.6867 8.88707 74.1239 9.43133C73.561 9.97558 72.8913 10.348 72.1076 10.5342C71.3239 10.7275 70.5117 10.706 69.6496 10.4769C68.7947 10.2477 68.068 9.861 67.4838 9.30958C66.8925 8.75817 66.4935 8.09934 66.2726 7.34741L66.2655 7.34025ZM68.1677 6.96071C68.2889 7.42618 68.5097 7.82005 68.8446 8.14947C69.1794 8.47888 69.5855 8.70804 70.0771 8.83694C70.5616 8.96585 71.0318 8.97301 71.4878 8.85127C71.9438 8.72953 72.3285 8.50037 72.6562 8.15663C72.9839 7.81289 73.2191 7.38322 73.3544 6.87477C73.4898 6.35916 73.4969 5.8722 73.3758 5.41388C73.2547 4.95556 73.0338 4.55454 72.699 4.22512C72.3641 3.8957 71.958 3.66654 71.4664 3.53764C70.9819 3.40874 70.5117 3.40158 70.0557 3.52332C69.5998 3.64506 69.2151 3.87422 68.8873 4.21796C68.5596 4.5617 68.3245 4.99137 68.1891 5.49982C68.0538 6.01542 68.0466 6.50239 68.1677 6.96071ZM79.5243 14.079L82.5309 7.81289L84.9888 9.00165L85.687 7.54792L78.9899 4.30389L78.2917 5.75762L80.7497 6.94638L77.7431 13.2124L79.5243 14.0718V14.079ZM85.1669 17.4018L87.2473 14.5802L90.3607 16.9005L88.2804 19.722L89.8691 20.9036L94.9489 14.0145L93.3673 12.8329L91.3653 15.547L88.2519 13.2268L90.2539 10.5127L88.6651 9.33107L83.5853 16.2202L85.1741 17.4018H85.1669ZM96.3382 27.7569L97.5067 26.6827L94.379 23.2382L95.8395 21.899L98.5041 24.8423L99.6369 23.8039L96.9723 20.8606L98.3402 19.6074L101.361 22.9374L102.529 21.8632L98.1906 17.0723L91.8854 22.8443L96.3311 27.7497L96.3382 27.7569ZM98.8033 31.3518L100.641 30.2132L102.259 30.5641L100.841 34.6675L102.052 36.6368L104.111 30.9436L109.198 31.9605L108.044 30.0843L102.672 28.9528L106.063 26.8474L105.03 25.1717L97.7703 29.6761L98.8033 31.3518ZM109.205 36.0496C109.882 36.1498 110.466 36.4148 110.958 36.8588C111.449 37.3028 111.834 37.8972 112.105 38.6419C112.376 39.3867 112.468 40.0885 112.383 40.7473C112.297 41.4062 112.027 41.9934 111.578 42.509C111.129 43.0246 110.502 43.4328 109.697 43.7264L105.322 45.352L104.638 43.4901L106.562 42.7811L105.215 39.1074L103.292 39.8164L102.615 37.9759L106.989 36.3503C107.787 36.0567 108.528 35.9565 109.205 36.0496ZM107.837 38.1263L106.697 38.5488L108.044 42.2225L109.184 41.8C109.846 41.5566 110.288 41.2057 110.509 40.7473C110.73 40.289 110.73 39.7806 110.523 39.2148C110.309 38.6419 109.975 38.2552 109.519 38.0547C109.063 37.8542 108.5 37.8757 107.837 38.1263ZM7.79426 81.7883C7.2813 81.6737 6.82532 81.4087 6.4121 80.9934L4.64521 83.643L3.91851 81.7596L5.45741 79.4752L5.42179 79.3893L4.83045 77.8639L2.7287 78.6803L2.05187 76.9258L9.6039 73.9826L10.8721 77.2696C11.1286 77.9427 11.2425 78.5657 11.214 79.153C11.1856 79.7402 11.0146 80.2415 10.7082 80.664C10.4019 81.0936 9.96725 81.4159 9.40441 81.6307C8.84157 81.8456 8.30723 81.9029 7.79426 81.7883ZM7.58765 79.8189C7.92251 80.0051 8.30011 80.0123 8.71333 79.8547C9.1408 79.69 9.41154 79.4251 9.53265 79.0599C9.65377 78.6946 9.61102 78.2506 9.40441 77.7207L8.85582 76.2885L6.22686 77.3125L6.78258 78.7448C6.98919 79.2747 7.2528 79.6256 7.59478 79.8118L7.58765 79.8189ZM10.2736 86.8298L12.2542 90.0452L13.4939 89.2718L11.5133 86.0564L13.0094 85.1254L15.2537 88.7633L16.529 87.9684L13.3087 82.7407L6.42635 87.0303L9.72502 92.3869L11.0003 91.592L8.67771 87.8252L10.2736 86.8369V86.8298ZM20.6612 97.2923C20.2195 97.6933 19.7421 97.9368 19.222 98.0228C18.702 98.1087 18.1747 98.0371 17.6475 97.8008C17.1203 97.5644 16.6145 97.1849 16.13 96.6478L15.0328 95.4376L13.3799 96.9486L12.1189 95.5521L18.1106 90.0738L20.4688 92.6805C20.9533 93.2176 21.281 93.7547 21.4592 94.3132C21.6373 94.8647 21.6586 95.4017 21.5304 95.9102C21.395 96.4186 21.1101 96.877 20.6612 97.2852V97.2923ZM19.8633 94.8432C19.849 94.4636 19.6495 94.0626 19.2719 93.6401L18.246 92.5015L16.1656 94.4063L17.1916 95.5378C17.5692 95.9532 17.9468 96.1895 18.3244 96.2468C18.702 96.3041 19.0582 96.1752 19.3859 95.8744C19.7208 95.5665 19.8846 95.2227 19.8633 94.836V94.8432ZM28.655 100.372C28.9328 100.88 29.0539 101.403 29.0183 101.926C28.9827 102.448 28.7832 102.957 28.4199 103.437C28.0565 103.916 27.629 104.246 27.1374 104.425C26.6458 104.604 26.1186 104.618 25.5487 104.482L25.4347 107.669L23.8245 106.452L23.9314 103.694L23.8601 103.637L22.5563 102.649L21.2027 104.461L19.7065 103.329L24.5726 96.8268L27.3725 98.9466C27.9425 99.3762 28.37 99.8489 28.6478 100.364L28.655 100.372ZM27.1873 101.188C27.1018 100.816 26.8311 100.458 26.3822 100.121L25.1639 99.1972L23.4683 101.467L24.6866 102.391C25.1354 102.728 25.5487 102.892 25.9334 102.871C26.3181 102.849 26.6387 102.663 26.9094 102.298C27.1802 101.933 27.2728 101.56 27.1873 101.195V101.188ZM38.5011 107.433C38.5795 108.177 38.4441 108.908 38.1092 109.631C37.7673 110.354 37.2899 110.92 36.6701 111.335C36.0502 111.751 35.3592 111.973 34.5968 112.016C33.8345 112.059 33.0722 111.901 32.3099 111.536C31.5475 111.178 30.9419 110.684 30.486 110.068C30.03 109.452 29.7664 108.772 29.688 108.027C29.6168 107.282 29.745 106.552 30.087 105.828C30.4218 105.105 30.9063 104.539 31.519 104.124C32.1317 103.709 32.8228 103.48 33.5923 103.444C34.3546 103.401 35.1169 103.566 35.8793 103.924C36.6416 104.282 37.2472 104.776 37.696 105.392C38.1449 106.008 38.4156 106.688 38.494 107.433H38.5011ZM36.6701 107.454C36.6416 107.003 36.492 106.595 36.2426 106.23C35.9861 105.864 35.6441 105.578 35.2095 105.377C34.775 105.17 34.3404 105.084 33.8986 105.12C33.4569 105.155 33.0508 105.306 32.6875 105.564C32.317 105.828 32.032 106.187 31.8183 106.645C31.6045 107.103 31.5119 107.554 31.5475 108.006C31.5832 108.457 31.7185 108.865 31.975 109.23C32.2315 109.595 32.5735 109.882 33.0081 110.082C33.4427 110.283 33.8773 110.376 34.319 110.34C34.7607 110.304 35.1668 110.154 35.5302 109.896C35.8935 109.631 36.1856 109.273 36.3994 108.815C36.6131 108.356 36.7057 107.905 36.6772 107.454H36.6701ZM52.9283 110.326C53.1563 110.934 53.2133 111.643 53.0993 112.453L52.4795 116.864L50.6271 116.599L50.8978 114.665L47.2287 114.15L46.9579 116.083L45.1269 115.826L45.7468 111.414C45.8608 110.612 46.1101 109.946 46.4948 109.416C46.8796 108.893 47.364 108.521 47.9554 108.306C48.5467 108.091 49.2093 108.034 49.9503 108.142C50.6912 108.249 51.3182 108.485 51.824 108.851C52.3299 109.223 52.7003 109.71 52.9283 110.319V110.326ZM50.9833 110.433C50.7055 110.046 50.278 109.81 49.7151 109.731C49.1452 109.653 48.6678 109.76 48.2974 110.054C47.9269 110.347 47.6918 110.827 47.5992 111.5L47.4353 112.653L51.0973 113.169L51.2612 112.016C51.3538 111.35 51.2612 110.82 50.9833 110.433ZM63.0808 109.882C63.3872 110.304 63.5653 110.82 63.5938 111.429C63.6294 112.023 63.5154 112.553 63.2518 113.011C62.9882 113.47 62.6035 113.835 62.0905 114.1C61.5775 114.365 60.9648 114.522 60.2452 114.558L58.6137 114.651L58.742 116.893L56.8682 117L56.4122 108.872L59.9104 108.671C60.63 108.629 61.2569 108.714 61.7984 108.929C62.3399 109.137 62.7673 109.459 63.0737 109.882H63.0808ZM61.6986 111.529C61.6701 111.071 61.5063 110.727 61.1999 110.505C60.8936 110.276 60.459 110.183 59.8961 110.211L58.3715 110.297L58.5282 113.119L60.0529 113.033C60.6157 113.004 61.0361 112.854 61.3139 112.596C61.5918 112.338 61.72 111.98 61.6986 111.529ZM74.9432 109.882C75.1498 110.655 75.1427 111.4 74.9432 112.116C74.7366 112.832 74.3519 113.455 73.7961 113.978C73.2404 114.501 72.5565 114.873 71.7443 115.095C70.9321 115.31 70.1555 115.331 69.4074 115.152C68.6593 114.973 68.0253 114.63 67.4909 114.107C66.9566 113.591 66.5861 112.94 66.3866 112.173C66.1871 111.407 66.18 110.655 66.3866 109.939C66.5932 109.223 66.9708 108.6 67.5337 108.077C68.0894 107.547 68.7805 107.182 69.5927 106.96C70.4049 106.745 71.1814 106.724 71.9224 106.903C72.6633 107.082 73.3045 107.433 73.8389 107.948C74.3732 108.464 74.7437 109.108 74.9503 109.882H74.9432ZM73.1122 110.376C72.9839 109.889 72.7631 109.481 72.4496 109.158C72.1361 108.836 71.7656 108.614 71.3382 108.5C70.9107 108.385 70.4618 108.392 69.9988 108.514C69.5357 108.636 69.1438 108.858 68.8303 109.173C68.5168 109.488 68.3031 109.86 68.1891 110.304C68.0751 110.741 68.0894 111.207 68.2176 111.694C68.3459 112.18 68.5667 112.589 68.8802 112.911C69.1937 113.233 69.5642 113.455 69.9916 113.57C70.4191 113.684 70.8679 113.677 71.331 113.555C71.7941 113.434 72.1789 113.212 72.4995 112.897C72.8201 112.582 73.0267 112.209 73.1407 111.765C73.2547 111.328 73.2404 110.863 73.1122 110.376ZM82.1817 103.687L81.5192 102.305L75.1641 105.392L75.8266 106.774L78.1564 105.642L81.0133 111.586L82.7018 110.77L79.8449 104.826L82.1817 103.694V103.687ZM87.6819 97.9726L89.577 100.551L86.6203 102.749L84.7252 100.171L83.2148 101.288L88.031 107.834L89.5414 106.716L87.5679 104.031L90.5246 101.833L92.4981 104.518L94.0085 103.401L89.1923 96.8555L87.6819 97.9726ZM97.414 97.944L96.0319 96.6693L98.5753 93.8836L97.4995 92.8953L94.9561 95.681L93.6594 94.4851L96.5377 91.3342L95.4334 90.3101L91.294 94.8432L97.2573 100.35L101.496 95.7097L100.385 94.6856L97.4069 97.9511L97.414 97.944ZM101.033 81.7811L99.929 83.5571L101.24 88.6272L98.0339 86.6149L97.0507 88.2047L103.919 92.5158L104.902 90.926L103.164 89.8375L102.779 88.305L106.847 87.7894L108.001 85.9275L102.316 86.5648L101.033 81.7811ZM107.844 74.4409L111.991 76.0092L111.328 77.7708L109.512 77.0834L108.208 80.5637L110.024 81.2512L109.369 82.9914L105.223 81.4231C104.467 81.1366 103.876 80.7427 103.449 80.2558C103.021 79.7617 102.772 79.2031 102.693 78.5801C102.615 77.957 102.708 77.291 102.971 76.5821C103.235 75.8803 103.605 75.3145 104.075 74.8992C104.546 74.4838 105.101 74.226 105.743 74.1401C106.384 74.0542 107.089 74.1544 107.844 74.4409ZM108.101 76.5534L107.018 76.1452C106.391 75.9089 105.857 75.8803 105.422 76.0736C104.987 76.267 104.667 76.625 104.46 77.1621C104.254 77.7064 104.254 78.1933 104.46 78.623C104.667 79.0527 105.08 79.3893 105.707 79.6256L106.79 80.0338L108.094 76.5534H108.101Z" fill="white"/>
</svg>
