<svg width="534" height="105" viewBox="0 0 534 105" fill="none" xmlns="http://www.w3.org/2000/svg">
<path d="M57.73 64.8196C63.2703 62.9177 67.9668 59.1308 71 54.1196C74.0124 48.8749 75.5339 42.9065 75.4 36.8596C75.4562 32.5493 74.7486 28.2632 73.31 24.1996C72.025 20.5667 70.0104 17.235 67.39 14.4096C64.813 11.6412 61.6537 9.47926 58.14 8.07962C54.2803 6.54195 50.1542 5.78404 46 5.84962H0C0 10.7163 1.9333 15.3837 5.37459 18.825C8.81588 22.2663 13.4833 24.1996 18.35 24.1996H43.35C46.0515 24.0492 48.7109 24.9202 50.8 26.6396C52.6067 28.2596 53.51 30.6463 53.51 33.7996V39.9296C53.51 43.083 52.6067 45.4696 50.8 47.0896C48.7109 48.8091 46.0515 49.6801 43.35 49.5296H18.35C13.4841 49.5323 8.81824 51.4664 5.37752 54.9071C1.9368 58.3479 0.00264956 63.0137 0 67.8796L0 103H21.14V67.3396H36.31L53.31 102.95H76.81L57.73 64.8196Z" fill="white"/>
<path d="M139.67 103C136.248 103.111 132.921 101.859 130.42 99.52C127.867 97.0231 126.226 93.741 125.76 90.2H124.92C124.469 92.3963 123.585 94.4807 122.32 96.3316C121.055 98.1825 119.433 99.7627 117.55 100.98C113.341 103.544 108.476 104.826 103.55 104.67C96.217 104.67 90.6036 102.727 86.7103 98.84C82.817 94.9534 80.8536 89.8067 80.8203 83.4C80.8203 75.7334 83.627 70.0234 89.2403 66.27C94.8536 62.5167 102.48 60.6467 112.12 60.66H123.67V56.06C123.828 53.0077 122.836 50.0071 120.89 47.65C119.03 45.5634 115.924 44.52 111.57 44.52C107.484 44.52 104.237 45.4 101.83 47.16C99.5163 48.8192 97.4895 50.846 95.8303 53.16L83.6003 42.23C86.4598 37.9717 90.301 34.4631 94.8003 32C99.3003 29.5334 105.4 28.2967 113.1 28.29C123.48 28.29 131.27 30.5634 136.47 35.11C141.67 39.6567 144.267 46.2867 144.26 55V87H151.08V103H139.67ZM111.15 90.29C114.247 90.38 117.309 89.6154 120 88.08C122.46 86.61 123.69 84.21 123.69 80.9V72.34H113.69C105.617 72.34 101.584 75.0567 101.59 80.49V82.56C101.59 85.23 102.42 87.18 104.09 88.43C105.76 89.68 108.09 90.29 111.15 90.29Z" fill="white"/>
<path d="M159.28 82.3603V29.9103H179.87V42.2903H180.71C181.985 38.4248 184.295 34.9832 187.39 32.3403C190.544 29.6069 194.854 28.2403 200.32 28.2403C204.878 28.1026 209.361 29.4195 213.12 32.0003C216.809 34.727 219.498 38.5928 220.77 43.0003H221.19C222.573 38.7215 225.369 35.04 229.12 32.5603C231.15 31.2286 233.35 30.1758 235.66 29.4303C238.179 28.6304 240.808 28.2322 243.45 28.2503C250.504 28.2503 255.907 30.7536 259.66 35.7603C263.414 40.7669 265.29 47.9103 265.29 57.1903V103C262.582 103 259.901 102.466 257.399 101.428C254.898 100.39 252.626 98.8692 250.713 96.9519C248.801 95.0347 247.285 92.7589 246.253 90.2551C245.221 87.7512 244.694 85.0684 244.7 82.3603V58.8503C244.7 49.5703 241.367 44.9336 234.7 44.9403C231.711 44.918 228.792 45.8421 226.36 47.5803C223.854 49.3403 222.6 52.0303 222.6 55.6503V103C219.891 103.002 217.209 102.468 214.706 101.431C212.204 100.394 209.931 98.8729 208.017 96.9555C206.103 95.0381 204.587 92.7619 203.554 90.2574C202.522 87.7529 201.994 85.0692 202 82.3603V58.8503C202 49.5703 198.667 44.9336 192 44.9403C190.515 44.9365 189.037 45.1452 187.61 45.5603C186.194 45.9628 184.872 46.6426 183.72 47.5603C182.55 48.4913 181.594 49.6649 180.92 51.0003C180.214 52.4495 179.871 54.0488 179.92 55.6603V103C177.208 103.007 174.521 102.477 172.014 101.443C169.507 100.408 167.229 98.8876 165.311 96.9697C163.393 95.0517 161.873 92.7738 160.838 90.2666C159.803 87.7595 159.274 85.0726 159.28 82.3603Z" fill="white"/>
<path d="M275.31 0C280.77 0 286.008 2.1693 289.869 6.03067C293.73 9.89205 295.9 15.1292 295.9 20.59V42.15H296.59C297.604 38.065 300.099 34.5018 303.59 32.15C307.265 29.5453 311.675 28.1793 316.18 28.25C325.453 28.25 332.453 31.4967 337.18 37.99C341.906 44.4833 344.27 53.9433 344.27 66.37C344.27 78.8033 341.906 88.2867 337.18 94.82C332.453 101.353 325.453 104.623 316.18 104.63C313.865 104.646 311.562 104.292 309.36 103.58C307.292 102.923 305.344 101.937 303.59 100.66C301.89 99.4328 300.41 97.9284 299.21 96.21C298.024 94.542 297.128 92.686 296.56 90.72H295.87V103H275.31V0ZM309.39 87.92C311.201 87.9704 313.002 87.6303 314.671 86.9229C316.34 86.2154 317.836 85.1572 319.06 83.82C321.606 81.0933 322.883 77.4067 322.89 72.76V60.1C322.89 55.4333 321.613 51.7467 319.06 49.04C317.836 47.7028 316.34 46.6446 314.671 45.9371C313.002 45.2297 311.201 44.8896 309.39 44.94C305.941 44.8041 302.543 45.8055 299.72 47.79C298.485 48.6844 297.49 49.8699 296.824 51.241C296.158 52.6122 295.84 54.1266 295.9 55.65V77.21C295.84 78.7334 296.158 80.2478 296.824 81.619C297.49 82.9901 298.485 84.1756 299.72 85.07C302.543 87.0545 305.941 88.0559 309.39 87.92Z" fill="white"/>
<path d="M408.3 103C404.879 103.103 401.555 101.853 399.05 99.52C396.5 97.0204 394.86 93.7396 394.39 90.2H393.56C393.105 92.3961 392.219 94.48 390.952 96.3306C389.685 98.1811 388.063 99.7616 386.18 100.98C382.38 103.44 377.697 104.67 372.13 104.67C364.797 104.67 359.187 102.727 355.3 98.84C351.413 94.9534 349.467 89.8067 349.46 83.4C349.46 75.7334 352.263 70.0234 357.87 66.27C363.477 62.5167 371.107 60.6467 380.76 60.66H392.3V56.06C392.462 53.0072 391.469 50.0051 389.52 47.65C387.673 45.5634 384.567 44.52 380.2 44.52C376.12 44.52 372.873 45.4 370.46 47.16C368.148 48.822 366.122 50.8483 364.46 53.16L352.24 42.23C355.097 37.9696 358.939 34.4605 363.44 32C367.933 29.5334 374.03 28.2967 381.73 28.29C392.117 28.29 399.907 30.5634 405.1 35.11C410.293 39.6567 412.89 46.2867 412.89 55V87H419.71V103H408.3ZM379.78 90.29C382.873 90.3751 385.931 89.6107 388.62 88.08C391.07 86.61 392.3 84.21 392.3 80.9V72.34H382.3C374.233 72.34 370.197 75.0567 370.19 80.49V82.56C370.19 85.23 371.03 87.18 372.7 88.43C374.37 89.68 376.72 90.29 379.78 90.29Z" fill="white"/>
<path d="M427.92 82.3604V29.9104H448.51V42.2904H449.34C450.612 38.429 452.915 34.9886 456 32.3404C459.153 29.607 463.467 28.2404 468.94 28.2404C473.504 28.1019 477.994 29.4187 481.76 32.0004C485.443 34.7334 488.129 38.5968 489.41 43.0004H489.82C490.49 40.9197 491.504 38.966 492.82 37.2204C494.185 35.3966 495.852 33.8204 497.75 32.5604C499.78 31.2287 501.98 30.1759 504.29 29.4304C506.809 28.6305 509.437 28.2323 512.08 28.2504C519.127 28.2504 524.53 30.7537 528.29 35.7604C532.05 40.767 533.927 47.9104 533.92 57.1904V103C531.216 103 528.539 102.468 526.04 101.433C523.542 100.398 521.273 98.8817 519.361 96.9697C517.449 95.0577 515.932 92.7879 514.897 90.2898C513.863 87.7917 513.33 85.1143 513.33 82.4104V58.8504C513.33 49.5704 509.997 44.9337 503.33 44.9404C500.345 44.9236 497.43 45.8473 495 47.5804C492.5 49.3404 491.25 52.0304 491.25 55.6504V103C488.546 103 485.869 102.468 483.371 101.433C480.872 100.398 478.603 98.8817 476.691 96.9697C474.779 95.0577 473.262 92.7879 472.227 90.2898C471.193 87.7917 470.66 85.1143 470.66 82.4104V58.8504C470.66 49.5704 467.327 44.9337 460.66 44.9404C459.178 44.9359 457.703 45.1447 456.28 45.5604C454.861 45.9627 453.535 46.6425 452.38 47.5604C451.198 48.4883 450.233 49.6621 449.55 51.0004C448.844 52.4496 448.5 54.0489 448.55 55.6604V103C445.838 103.006 443.153 102.475 440.647 101.44C438.141 100.404 435.864 98.884 433.947 96.9662C432.03 95.0484 430.511 92.7709 429.477 90.2644C428.442 87.758 427.913 85.0719 427.92 82.3604Z" fill="white"/>
</svg>
