<svg width="132" height="26" viewBox="0 0 132 26" fill="none" xmlns="http://www.w3.org/2000/svg">
<path d="M97.7296 10.3511H98.2323V0.327788H97.8653L96.2718 2.28467C95.7188 1.00243 94.8743 0.260742 93.2958 0.260742C90.9783 0.260742 88.2185 2.00392 88.2185 10.3846V14.8222C88.2185 20.7766 89.6562 25.298 93.7734 25.298C97.4079 25.298 98.5138 21.1831 98.368 15.0401H97.8151C98.0061 21.4513 96.4628 24.5563 94.2962 24.5563C93.326 24.5563 92.8233 24.0158 92.8233 22.26V2.01649C92.8233 1.57651 93.0444 0.901864 93.708 0.901864C94.9748 0.901864 96.1511 1.84469 97.7296 10.3511Z" fill="white"/>
<path d="M54.2461 24.3887V24.9293L58.5844 24.9334V24.3929C57.5187 24.2546 56.7093 23.647 56.7093 22.2977V2.55705H56.9305L60.198 24.9293H62.0379L65.3809 2.55705H65.5669V24.3887H64.099V24.9293H71.2625V24.3887H69.8298V1.06948H71.1921V0.52893H65.0541L62.9227 14.533H62.7015L60.6404 0.52893H54.5025V1.06948H55.9754V22.1594C55.9754 23.4417 55.4576 24.1163 54.2461 24.3887Z" fill="white"/>
<path d="M5.72047 1.11976L7.85191 17.1143H7.92732L10.2448 3.19398C10.5363 1.47175 9.65661 1.16586 8.77185 1.13234V0.579212H12.4114V1.11976C11.6423 1.22452 11.3105 1.55975 11.1597 2.43553L7.37435 24.9837H4.47377L1.31179 1.11976H0.502441V0.579212H6.89678V1.11976H5.72047Z" fill="white"/>
<path fill-rule="evenodd" clip-rule="evenodd" d="M10.7223 24.9837V24.439C11.6775 24.3719 12.1148 24.1331 12.336 22.9221L16.5888 0.579212H19.2682L22.9229 24.439H24.245V24.9837H17.0061V24.439H18.474L17.926 19.9847H13.6229L13.1202 23.3369C13.0096 24.1457 14.1507 24.418 14.7741 24.418V24.9837H10.7223ZM17.8154 19.4441L16.1213 7.32984H16.0509L13.7335 19.4441H17.8154Z" fill="white"/>
<path fill-rule="evenodd" clip-rule="evenodd" d="M24.6723 0.579212V1.11976H26.0698V24.439H24.6723V24.9837H31.2526C36.546 24.9837 37.5011 19.8506 37.5263 15.1239V11.3777C37.1995 1.76089 34.3291 0.579212 29.659 0.579212H24.6723ZM32.9065 22.8173C32.9065 23.8984 32.3535 24.439 30.5941 24.439V1.11976C32.2831 1.15329 32.9065 1.35861 32.9065 3.58368V22.8173Z" fill="white"/>
<path d="M39.8337 24.9837V24.439H41.2211V1.11976H39.8337V0.579212H52.371V9.82728H51.8683C50.6166 3.12275 49.958 1.11976 47.6406 1.11976H45.7454V12.2577C47.6205 11.9518 48.5354 10.8749 48.7968 6.39121H49.2995V18.87H48.8974C48.3947 14.4157 47.8266 12.9658 45.7354 12.7982V24.439H46.8363C48.7465 24.439 49.5911 24.0199 50.6216 20.3199C51.1549 18.6122 51.5479 16.8761 51.7979 15.1239H52.3509V24.9837H39.8337Z" fill="white"/>
<path d="M72.3382 24.9293V24.3887H73.7357V1.06948H72.3382V0.52893H84.8756V9.777H84.3729C83.1211 3.07246 82.4576 1.06948 80.1452 1.06948H78.2299V12.2074C80.1049 11.9015 81.0249 10.8246 81.2813 6.34093H81.784V18.8197H81.4371C80.9344 14.3654 80.3714 12.9156 78.2751 12.7479V24.3887H79.3811C81.2913 24.3887 82.1359 23.9697 83.1664 20.2696C83.6967 18.5613 84.0897 16.8255 84.3427 15.0736H84.8957V24.9293H72.3382Z" fill="white"/>
<path d="M100.344 0.52893H107.693V1.06948H106.301V23.0394C106.301 24.0158 106.592 24.5228 108.176 24.5228C109.644 24.5228 111.222 23.3411 111.222 19.9344V2.65762C111.222 1.40052 110.488 1.06948 109.347 1.06948V0.52893H113.504V1.06948C112.499 1.13653 111.996 1.48852 111.996 2.65762V19.6285C111.996 24.0828 109.935 25.298 106.703 25.298C103.797 25.298 101.776 24.0158 101.776 20.4414V1.06948H100.344V0.52893Z" fill="white"/>
<path d="M114.716 24.3887V24.9293L119.054 24.9334V24.3929C117.988 24.2546 117.179 23.647 117.179 22.2977V2.55705H117.4L120.673 24.9293H122.508L125.856 2.55705H126.037V24.3887H124.569V24.9293H131.732V24.3887H130.3V1.06948H131.662V0.52893H125.524L123.382 14.533H123.161L121.11 0.52893H114.972V1.06948H116.445V22.1594C116.445 23.4417 115.927 24.1163 114.716 24.3887Z" fill="white"/>
</svg>
